<?xml version="1.0" encoding="utf-8"?>
<!-- Generator: Adobe Illustrator 10.0, SVG Export Plug-In . SVG Version: 3.0.0 Build 76)  -->
<!DOCTYPE svg PUBLIC "-//W3C//DTD SVG 1.0//EN"    "http://www.w3.org/TR/2001/REC-SVG-20010904/DTD/svg10.dtd" [
	<!ENTITY ns_flows "http://ns.adobe.com/Flows/1.0/">
	<!ENTITY ns_svg "http://www.w3.org/2000/svg">
	<!ENTITY ns_xlink "http://www.w3.org/1999/xlink">
]>
<svg  xmlns="&ns_svg;" xmlns:xlink="&ns_xlink;" xmlns:a="http://ns.adobe.com/AdobeSVGViewerExtensions/3.0/"
	 width="32" height="32" viewBox="0 0 32 32" overflow="visible" enable-background="new 0 0 32 32" xml:space="preserve">
	<g id="Layer_1">
		<g id="Layer_1_1_">
			<path fill="none" d="M32,32H0V0h32V32z"/>
			
				<radialGradient id="XMLID_1_" cx="-274.5" cy="266.5" r="39.1713" fx="-274.5" fy="266.5" gradientTransform="matrix(1 0 0 -1 290.5 330.5)" gradientUnits="userSpaceOnUse">
				<stop  offset="0" style="stop-color:#000000;stop-opacity:1.0;"/>
				<stop  offset="0.67" style="stop-color:#000000;stop-opacity:1.0;"/>
				<stop  offset="1" style="stop-color:#000000;stop-opacity:0.0;"/>
				<a:midPointStop  offset="0" style="stop-color:#000000"/>
				<a:midPointStop  offset="0.5" style="stop-color:#000000"/>
				<a:midPointStop  offset="0.67" style="stop-color:#000000"/>
				<a:midPointStop  offset="0.5" style="stop-color:#000000"/>
				<a:midPointStop  offset="1" style="stop-color:#FFFFFF"/>
			</radialGradient>
			<path fill="url(#XMLID_1_)" d="M20,24c-1.628,0-3.025,0.486-3.65,1.186c-0.09,0.088-0.213,0.144-0.35,0.144
				s-0.26-0.056-0.35-0.146v0.002C15.025,24.486,13.628,24,12,24c-2.209,0-12,3-12,3s4.875,5,16,5s16-5,16-5S22.209,24,20,24z"/>
			<path fill="#A00000" d="M20,16c-1.628,0-3.025,0.975-3.65,2.369c-0.09,0.178-0.213,0.287-0.35,0.287s-0.26-0.111-0.35-0.288
				v0.001C15.025,16.975,13.628,16,12,16c-2.209,0-12,6-12,6s4.875,10,16,10s16-10,16-10S22.209,16,20,16z"/>
			
				<radialGradient id="XMLID_2_" cx="-274.5" cy="313.124" r="7.6937" fx="-274.5" fy="313.124" gradientTransform="matrix(1 0 0 -1 290.5 330.5)" gradientUnits="userSpaceOnUse">
				<stop  offset="0" style="stop-color:#FFCBCB"/>
				<stop  offset="1" style="stop-color:#C00000"/>
				<a:midPointStop  offset="0" style="stop-color:#FFCBCB"/>
				<a:midPointStop  offset="0.5" style="stop-color:#FFCBCB"/>
				<a:midPointStop  offset="1" style="stop-color:#C00000"/>
			</radialGradient>
			<path fill="url(#XMLID_2_)" d="M17.264,18.777l-0.021,0.045c-0.266,0.521-0.729,0.834-1.241,0.834
				c-0.518,0-0.971-0.305-1.24-0.833C14.254,17.697,13.18,17,12,17c-1.137,0-6.15,2.645-10.654,5.357C2.713,24.633,7.313,31,16,31
				c8.688,0,13.287-6.367,14.654-8.643C26.148,19.645,21.137,17,20,17C18.82,17,17.746,17.698,17.264,18.777z"/>
			
				<radialGradient id="XMLID_3_" cx="-274.5" cy="306.374" r="9.4575" fx="-274.5" fy="306.374" gradientTransform="matrix(1 0 0 -1 290.5 330.5)" gradientUnits="userSpaceOnUse">
				<stop  offset="0" style="stop-color:#FFCBCB"/>
				<stop  offset="1" style="stop-color:#C00000"/>
				<a:midPointStop  offset="0" style="stop-color:#FFCBCB"/>
				<a:midPointStop  offset="0.5" style="stop-color:#FFCBCB"/>
				<a:midPointStop  offset="1" style="stop-color:#C00000"/>
			</radialGradient>
			<path fill="url(#XMLID_3_)" d="M16,31c8.688,0,13.287-6.367,14.654-8.643c0,0-1.945,0.324-4.75,0.648
				c-2.803,0.325-6.467-0.35-9.904-0.35c-3.438,0-7.102,0.676-9.905,0.351c-2.804-0.325-4.749-0.649-4.749-0.649
				C2.713,24.633,7.313,31,16,31z"/>
			<path fill="#A00000" d="M25.887,22.792c-0.527,0.062-4.209-0.135-5.556-0.241L16,22.156l-4.33,0.355
				c-1.347,0.106-5.03,0.342-5.556,0.279l-4.768-0.436l4.73,0.764c0.559,0.064,4.267,0.17,5.647,0.061L16,23.156l4.277,0.063
				c1.381,0.109,5.088-0.033,5.646-0.099l4.73-0.763L25.887,22.792z"/>
		</g>
	</g>
</svg>
