<?xml version="1.0" encoding="utf-8"?>
<!-- Generator: Adobe Illustrator 10.0, SVG Export Plug-In . SVG Version: 3.0.0 Build 76)  -->
<!DOCTYPE svg PUBLIC "-//W3C//DTD SVG 1.0//EN"    "http://www.w3.org/TR/2001/REC-SVG-20010904/DTD/svg10.dtd" [
	<!ENTITY ns_flows "http://ns.adobe.com/Flows/1.0/">
	<!ENTITY ns_svg "http://www.w3.org/2000/svg">
	<!ENTITY ns_xlink "http://www.w3.org/1999/xlink">
]>
<svg  xmlns="&ns_svg;" xmlns:xlink="&ns_xlink;" xmlns:a="http://ns.adobe.com/AdobeSVGViewerExtensions/3.0/"
	 width="32" height="32" viewBox="0 0 32 32" overflow="visible" enable-background="new 0 0 32 32" xml:space="preserve">
	<g id="Layer_1">
		<path fill="none" d="M32,32H0V0h32V32z"/>
		
			<radialGradient id="XMLID_1_" cx="-855.5" cy="313.5391" r="39.1713" fx="-855.5" fy="313.5391" gradientTransform="matrix(1 0 0 -1 871.5 377.5391)" gradientUnits="userSpaceOnUse">
			<stop  offset="0" style="stop-color:#000000;stop-opacity:1.0;"/>
			<stop  offset="0.67" style="stop-color:#000000;stop-opacity:1.0;"/>
			<stop  offset="1" style="stop-color:#000000;stop-opacity:0.0;"/>
			<a:midPointStop  offset="0" style="stop-color:#000000"/>
			<a:midPointStop  offset="0.5" style="stop-color:#000000"/>
			<a:midPointStop  offset="0.67" style="stop-color:#000000"/>
			<a:midPointStop  offset="0.5" style="stop-color:#000000"/>
			<a:midPointStop  offset="1" style="stop-color:#FFFFFF"/>
		</radialGradient>
		<path fill="url(#XMLID_1_)" d="M0,26c0-1.104,3.582-2,8-2s8,0.896,8,2c0-1.104,3.58-2,8-2c4.418,0,8,0.896,8,2c0,3.313-16,6-16,6
			S0,29.313,0,26z"/>
		<path fill="#800000" d="M24,8c-3.256,0-6.052,1.948-7.3,4.739c-0.181,0.354-0.427,0.573-0.7,0.573s-0.52-0.221-0.7-0.576
			c0,0,0,0.002,0.001,0.003C14.052,9.948,11.256,8,8,8c-4.418,0-8,3.582-8,8c0,13.255,16,16,16,16s16-2.745,16-16
			C32,11.582,28.419,8,24,8z"/>
		
			<radialGradient id="XMLID_2_" cx="-855.5" cy="360.3877" r="13.8307" fx="-855.5" fy="360.3877" gradientTransform="matrix(1 0 0 -1 871.5 377.5391)" gradientUnits="userSpaceOnUse">
			<stop  offset="0" style="stop-color:#FF6767"/>
			<stop  offset="1" style="stop-color:#C00000"/>
			<a:midPointStop  offset="0" style="stop-color:#FF6767"/>
			<a:midPointStop  offset="0.5" style="stop-color:#FF6767"/>
			<a:midPointStop  offset="1" style="stop-color:#C00000"/>
		</radialGradient>
		<path fill="url(#XMLID_2_)" d="M1.116,17.788c0.029,0.244,0.07,0.483,0.11,0.726C2.966,28.188,14.523,30.701,16,30.982
			c1.477-0.281,13.034-2.797,14.773-12.473c0.039-0.238,0.08-0.479,0.107-0.725c0.02-0.146,0.034-0.292,0.051-0.438
			C30.973,16.902,31,16.455,31,16c0-3.859-3.141-7-7-7c-2.753,0-5.262,1.628-6.389,4.146l-0.021,0.047
			c-0.361,0.711-0.941,1.119-1.591,1.119c-0.649,0-1.229-0.41-1.592-1.123C13.26,10.627,10.753,9,8,9c-3.86,0-7,3.141-7,7
			c0,0.455,0.028,0.902,0.068,1.348C1.082,17.496,1.098,17.643,1.116,17.788z"/>
		
			<radialGradient id="XMLID_3_" cx="-867.998" cy="357.8311" r="10.5003" fx="-867.998" fy="357.8311" gradientTransform="matrix(0.9659 -0.2588 -0.2588 -0.9659 939.9127 140.3733)" gradientUnits="userSpaceOnUse">
			<stop  offset="0" style="stop-color:#FFFFFF;stop-opacity:0.0;"/>
			<stop  offset="0.75" style="stop-color:#FFFFFF;stop-opacity:0.0;"/>
			<stop  offset="1" style="stop-color:#FFFFFF;stop-opacity:1.0;"/>
			<a:midPointStop  offset="0" style="stop-color:#000000"/>
			<a:midPointStop  offset="0.5" style="stop-color:#000000"/>
			<a:midPointStop  offset="0.75" style="stop-color:#000000"/>
			<a:midPointStop  offset="0.5" style="stop-color:#000000"/>
			<a:midPointStop  offset="1" style="stop-color:#FFFFFF"/>
		</radialGradient>
		<path fill="url(#XMLID_3_)"  a:adobe-blending-mode="screen" enable-background="new    " d="M6.188,9.239
			c-3.734,1-5.95,4.838-4.95,8.573c1.001,3.731,4.839,5.947,8.573,4.947c3.735-1.001,5.951-4.84,4.951-8.572
			C13.762,10.454,9.923,8.238,6.188,9.239z"/>
		
			<radialGradient id="XMLID_4_" cx="-843.2075" cy="359.4023" r="10.4985" fx="-843.2075" fy="359.4023" gradientTransform="matrix(0.9659 0.2588 0.2588 -0.9659 744.5349 584.7484)" gradientUnits="userSpaceOnUse">
			<stop  offset="0" style="stop-color:#FFFFFF;stop-opacity:0.0;"/>
			<stop  offset="0.75" style="stop-color:#FFFFFF;stop-opacity:0.0;"/>
			<stop  offset="1" style="stop-color:#FFFFFF;stop-opacity:1.0;"/>
			<a:midPointStop  offset="0" style="stop-color:#000000"/>
			<a:midPointStop  offset="0.5" style="stop-color:#000000"/>
			<a:midPointStop  offset="0.75" style="stop-color:#000000"/>
			<a:midPointStop  offset="0.5" style="stop-color:#000000"/>
			<a:midPointStop  offset="1" style="stop-color:#FFFFFF"/>
		</radialGradient>
		<path fill="url(#XMLID_4_)"  a:adobe-blending-mode="screen" enable-background="new    " d="M25.813,9.239
			c-3.731-1.001-7.57,1.214-8.574,4.95c-1,3.732,1.219,7.571,4.951,8.572c3.733,1,7.572-1.217,8.572-4.948
			C31.764,14.077,29.547,10.239,25.813,9.239z"/>
		
			<radialGradient id="XMLID_5_" cx="-855.5" cy="363.0439" r="18.5459" fx="-855.5" fy="363.0439" gradientTransform="matrix(1 0 0 -1 871.5 377.5391)" gradientUnits="userSpaceOnUse">
			<stop  offset="0" style="stop-color:#000000;stop-opacity:0.0;"/>
			<stop  offset="0.75" style="stop-color:#000000;stop-opacity:0.0;"/>
			<stop  offset="0.875" style="stop-color:#000000;stop-opacity:0.5;"/>
			<stop  offset="1" style="stop-color:#000000;stop-opacity:1.0;"/>
			<a:midPointStop  offset="0" style="stop-color:#FFFFFF"/>
			<a:midPointStop  offset="0.5" style="stop-color:#FFFFFF"/>
			<a:midPointStop  offset="0.75" style="stop-color:#FFFFFF"/>
			<a:midPointStop  offset="0.5" style="stop-color:#FFFFFF"/>
			<a:midPointStop  offset="0.875" style="stop-color:#808080"/>
			<a:midPointStop  offset="0.5" style="stop-color:#808080"/>
			<a:midPointStop  offset="1" style="stop-color:#000000"/>
		</radialGradient>
		<path opacity="0.5" fill="url(#XMLID_5_)"  a:adobe-blending-mode="multiply" enable-background="new    " d="M1.116,17.786
			c0.029,0.246,0.07,0.489,0.111,0.731C2.97,28.188,14.523,30.701,16,30.982c1.477-0.281,13.029-2.795,14.771-12.465
			c0.041-0.242,0.082-0.485,0.109-0.731c0.02-0.146,0.034-0.291,0.051-0.438C30.973,16.902,31,16.455,31,16c0-3.859-3.141-7-7-7
			c-2.753,0-5.262,1.628-6.389,4.146l-0.021,0.047c-0.361,0.711-0.941,1.119-1.591,1.119c-0.649,0-1.229-0.41-1.592-1.123
			C13.26,10.627,10.753,9,8,9c-3.86,0-7,3.141-7,7c0,0.456,0.028,0.905,0.068,1.352C1.082,17.497,1.098,17.643,1.116,17.786z"/>
	</g>
</svg>
