<?xml version="1.0" encoding="utf-8"?>
<!-- Generator: Adobe Illustrator 10.0.3, SVG Export Plug-In . SVG Version: 3.0.0 Build 77)  -->
<!DOCTYPE svg PUBLIC "-//W3C//DTD SVG 1.0//EN"    "http://www.w3.org/TR/2001/REC-SVG-20010904/DTD/svg10.dtd" [
	<!ENTITY ns_flows "http://ns.adobe.com/Flows/1.0/">
	<!ENTITY ns_extend "http://ns.adobe.com/Extensibility/1.0/">
	<!ENTITY ns_ai "http://ns.adobe.com/AdobeIllustrator/10.0/">
	<!ENTITY ns_svg "http://www.w3.org/2000/svg">
	<!ENTITY ns_xlink "http://www.w3.org/1999/xlink">
]>
<svg  xmlns:x="&ns_extend;" xmlns:i="&ns_ai;" xmlns:graph="&ns_graphs;"
	 xmlns="&ns_svg;" xmlns:xlink="&ns_xlink;" xmlns:a="http://ns.adobe.com/AdobeSVGViewerExtensions/3.0/" width="117" height="118"
	 viewBox="0.041 -0.459 117 118" overflow="visible" enable-background="new 0.041 -0.459 117 118" xml:space="preserve">
	<g id="Layer_1_2_">
		<g>
			<path d="M6.201,3.646L3.96,3.96L3.646,6.201c-4.861,34.73-4.861,69.949,0,104.679l0.314,2.241l2.241,0.313
				c34.73,4.863,69.949,4.863,104.679,0l2.241-0.313l0.314-2.241c4.861-34.729,4.861-69.949,0-104.679l-0.314-2.241l-2.241-0.314
				C76.15-1.215,40.931-1.216,6.201,3.646z"/>
			<path fill="#FF0000" d="M6.617,6.617c34.616-4.846,69.23-4.846,103.847,0c4.847,34.616,4.847,69.23,0,103.847
				c-34.616,4.847-69.231,4.847-103.847,0C1.771,75.848,1.771,41.233,6.617,6.617z"/>
		</g>
		<path fill="#FFFFFF" d="M22.546,24.733l-3.039,3.303l6.605,6.076l3.038-3.302c7.099-7.716,18.823-12.319,30.596-12.014
			c10.505,0.271,19.956,4.498,26.945,11.887c-0.922,2.196-2.151,4.242-3.65,6.111c-5.944-5.854-13.408-9.318-21.629-9.867
			C50.501,26.2,39.557,30.662,32.137,38.863c-1.542,1.704-1.547,4.295-0.014,6.005c8.854,9.877,22.326,13.966,36.038,10.94
			c4.983-1.099,9.579-3.099,13.597-5.787c0.638,1.546,0.939,3.091,0.939,4.59c0,6.069-4.357,11.359-5.922,12.702
			c-4.037,3.457-11.437,13.477-11.818,21.131c-0.248,4.983-3.471,8.051-6.55,8.881c-3.524,0.948-7.011-0.76-9.566-4.692
			l-2.444-3.762l-7.524,4.891l2.444,3.762c4.674,7.191,12.118,10.437,19.426,8.466c7.471-2.013,12.767-8.885,13.178-17.097
			c0.207-4.144,5.488-12.017,8.695-14.767c3.817-3.271,9.082-10.93,9.082-19.587c0-3.435-0.905-7.022-2.979-10.56
			c3.381-3.748,5.967-8.13,7.447-12.974c0.131-0.43,0.195-0.871,0.195-1.31c0-1.033-0.355-2.048-1.031-2.864
			C86.543,16.227,73.988,10.188,59.979,9.824C45.691,9.454,31.347,15.167,22.546,24.733z M60.816,35.882
			c4.376,0.293,10.22,1.869,15.545,6.938c-3.008,1.94-6.422,3.406-10.133,4.226c-8.913,1.967-17.62,0.037-24.13-5.119
			C47.397,37.708,54.086,35.434,60.816,35.882z"/>
	</g>
</svg>
